<svg id="Layer_1" data-name="Layer 1" xmlns="http://www.w3.org/2000/svg" viewBox="0 0 316.91 316.94"><defs><style>.cls-1{fill:#fff;}.cls-2{fill:#117086;}.cls-3{fill:#b4b4b4;}.cls-4{fill:#0f5869;}.cls-5{fill:#e5e5e5;}.cls-6{fill:#c5c6c7;}.cls-7{fill:#0b4553;}.cls-8{fill:#093540;}.cls-9{fill:#3e8b9d;}.cls-10{fill:#1792b1;}.cls-11{fill:#81c0d1;}</style></defs><title>camera2</title><path class="cls-1" d="M100.13,500.35c11.46,0,22.93-.06,34.39,0,1.36,19.79,3,39.56,4.21,59.36q-13.59.07-27.19,0C108,539.87,103.42,520.23,100.13,500.35Z" transform="translate(-45.46 -404.53)"/><path class="cls-2" d="M108.58,570.49c2.61.2,5.24.2,7.86.2,52.11,0,104.21.07,156.31-.05-1.61,17.75-6.92,35.82-18,50a82.67,82.67,0,0,1-18.64,16.42,118.33,118.33,0,0,1-28.86,12.1c-5,1.57-10.26,2.2-15.2,4-33.11-3.69-63.13-26.22-76.35-56.74C112.15,588.21,109.25,579.48,108.58,570.49Zm21.32,6.59c-2.59.51-5.63,1.71-6.45,4.49-1,4.69.51,9.43,2.12,13.81,2.67,7.59,7.46,14.26,13.06,20,9.62,9.62,21.16,17.64,34.21,21.77,9.85,3.51,20.67,5.09,30.95,2.76,2.31-.35,3.87-3,2.37-5-2.75-3.25-7.07-4.56-10.92-6-10.52-3.28-21.68-6.44-30-14.08-5.92-5.32-8.64-13.44-8.47-21.26.17-4.82-.5-10.45-4.67-13.54C145.51,575.83,137.32,576.78,129.9,577.08Zm71.9,2.84a19.42,19.42,0,0,0-13.21,21.67C190,612,201.2,619.68,211.48,617.26c10.57-1.82,17.79-13.47,14.83-23.77C223.92,583,211.93,576.44,201.8,579.92Z" transform="translate(-45.46 -404.53)"/><path class="cls-3" d="M294.71,500.38c10.32,0,20.64-.06,31,0-2.76,19.75-6.2,39.43-9.24,59.15a40.3,40.3,0,0,1-6.86.16c-6.49-.06-13,0-19.46,0C291.48,539.9,293.16,520.15,294.71,500.38Z" transform="translate(-45.46 -404.53)"/><path class="cls-4" d="M272.75,570.64l2.44-.08c8.09.21,16.19.12,24.29.1A96.36,96.36,0,0,1,192,653.21c4.94-1.82,10.19-2.45,15.2-4a118.33,118.33,0,0,0,28.86-12.1,82.67,82.67,0,0,0,18.64-16.42C265.83,606.46,271.14,588.39,272.75,570.64Z" transform="translate(-45.46 -404.53)"/><path class="cls-5" d="M82.14,500.37c6,0,12,0,18,0,3.29,19.88,7.89,39.52,11.41,59.36-3.82-.05-7.64,0-11.46,0-2.24,0-4.48,0-6.73.08-.87-1.19-.75-2.79-1.1-4.15C88.94,537.2,85.24,518.83,82.14,500.37Z" transform="translate(-45.46 -404.53)"/><path class="cls-5" d="M134.52,500.36q80.1,0,160.19,0c-1.55,19.77-3.23,39.52-4.6,59.3H283.6c-48.29,0-96.58,0-144.87,0C137.51,539.92,135.88,520.15,134.52,500.36Z" transform="translate(-45.46 -404.53)"/><path class="cls-6" d="M188.94,405.24a158.64,158.64,0,1,1-97.52,46.17A158.54,158.54,0,0,1,188.94,405.24ZM82.14,500.37c3.1,18.46,6.8,36.83,10.11,55.26.35,1.36.23,3,1.1,4.15,2.25,0,4.49,0,6.73-.08-.56,5,3.67,9.78,8.5,10.79.67,9,3.57,17.72,7.08,26,13.22,30.52,43.24,53,76.35,56.74a96.36,96.36,0,0,0,107.47-82.55,11,11,0,0,0,10.09-10.95,40.3,40.3,0,0,0,6.86-.16c3-19.72,6.48-39.4,9.24-59.15-10.32-.08-20.64-.06-31,0q-80.1-.06-160.19,0c-11.46-.07-22.93-.05-34.39,0C94.14,500.39,88.14,500.35,82.14,500.37Z" transform="translate(-45.46 -404.53)"/><path class="cls-7" d="M100.08,559.7c3.82,0,7.64,0,11.46,0q13.59.09,27.19,0c48.29-.08,96.58,0,144.87,0-.82,2.38-1.36,5-2.92,7a28.91,28.91,0,0,1-5.49,3.87l-2.44.08c-52.1.12-104.2,0-156.31.05-2.62,0-5.25,0-7.86-.2C103.75,569.48,99.52,564.73,100.08,559.7Z" transform="translate(-45.46 -404.53)"/><path class="cls-8" d="M283.6,559.68h6.51c6.49,0,13,0,19.46,0a11,11,0,0,1-10.09,10.95c-8.1,0-16.2.11-24.29-.1a28.91,28.91,0,0,0,5.49-3.87C282.24,564.64,282.78,562.06,283.6,559.68Z" transform="translate(-45.46 -404.53)"/><path class="cls-9" d="M129.9,577.08c7.42-.3,15.61-1.25,22.23,2.89,4.17,3.09,4.84,8.72,4.67,13.54-.17,7.82,2.55,15.94,8.47,21.26,8.29,7.64,19.45,10.8,30,14.08,3.85,1.45,8.17,2.76,10.92,6,1.5,2-.06,4.67-2.37,5-10.28,2.33-21.1.75-30.95-2.76C159.79,633,148.25,625,138.63,615.35c-5.6-5.71-10.39-12.38-13.06-20-1.61-4.38-3.15-9.12-2.12-13.81C124.27,578.79,127.31,577.59,129.9,577.08Z" transform="translate(-45.46 -404.53)"/><path class="cls-10" d="M201.8,579.92c10.13-3.48,22.12,3.12,24.51,13.57,3,10.3-4.26,22-14.83,23.77C201.2,619.68,190,612,188.59,601.59A19.42,19.42,0,0,1,201.8,579.92Zm-2.05,6c-6.38,2.2-7.72,11.7-2.24,15.62,5.15,4.42,14.14.7,14.61-6.09C213.23,588.89,205.79,583.22,199.75,585.92Z" transform="translate(-45.46 -404.53)"/><path class="cls-11" d="M199.75,585.92c6-2.7,13.48,3,12.37,9.53-.47,6.79-9.46,10.51-14.61,6.09C192,597.62,193.37,588.12,199.75,585.92Z" transform="translate(-45.46 -404.53)"/></svg>