<svg id="Layer_1" data-name="Layer 1" xmlns="http://www.w3.org/2000/svg" viewBox="0 0 316.93 316.93"><defs><style>.cls-1{fill:#00d9ff;}.cls-2{fill:#fff;}.cls-3{fill:#117086;}.cls-4{fill:#bebebe;}.cls-5{fill:#f2f2f2;}.cls-6{fill:#e5e5e5;}</style></defs><title>camera3</title><path class="cls-1" d="M820,441.84a158.51,158.51,0,0,1,192.36-9.13c6.54,4.73,13.18,9.54,18.66,15.48-27,.14-53.94,0-80.91.08l0,3.47c-20.12.08-40.25-.14-60.37.11-3.49,1.27-1.67,5.85-2.11,8.64-.59,11.09,1.85,22.83-2.92,33.3-4,9.67-10.75,17.82-17.52,25.67-3.6,3.65-7.67,6.83-11,10.7a71.32,71.32,0,0,0-18.32,46.33c-.05,9.66,0,19.33-.05,29,2.49.72,5.19.16,7.78.3a76.61,76.61,0,0,0,.7,9.32A75.4,75.4,0,0,0,849,626.49c-4.07,3.53-8.22,7-12.36,10.41,1.43,2,3,3.82,4.53,5.72-3.51,3.41-7.66,6.08-11,9.66,6.49,7.75,13,15.48,19.51,23.23,4.26-2.44,7.42-6.44,11.57-9.09,1.67,1.94,3.27,4,5,5.87,4.28-3.39,8.34-7,12.58-10.49A59.29,59.29,0,0,0,896,668.19a63.43,63.43,0,0,0,44.71-6.54,64.31,64.31,0,0,0,32.88-55.86c2.58,0,5.17,0,7.76,0-.15-11.46.35-22.93-.32-34.37a71.73,71.73,0,0,0-24.12-47.27c-2.59-2.35-5.55-4.25-8.15-6.59-7.24-8.88-13.47-18.86-16.52-30a23,23,0,0,1-.77-7.34c6.22-.08,12.45,0,18.68,0,0,.88-.05,2.65-.07,3.53,16-.18,31,8,41.78,19.49,14.35,14.45,22.79,33.28,34.65,49.56q12,.06,24.07,0c.06-27.47,0-54.95,0-82.42,25.68,34.87,35.42,80.67,27,123.07A158.49,158.49,0,1,1,820,441.84Z" transform="translate(-763.62 -404.52)"/><path class="cls-2" d="M950.06,448.27c27-.09,53.94.06,80.91-.08,6.52.12,13,0,19.59.06,0,7.37,0,14.75,0,22.12-.06,27.47,0,55,0,82.42q-12,.06-24.07,0c-11.86-16.28-20.3-35.11-34.65-49.56-10.77-11.46-25.74-19.67-41.78-19.49,0-.88.06-2.65.07-3.53.25-9.49.31-19,0-28.47Z" transform="translate(-763.62 -404.52)"/><path class="cls-2" d="M874.56,515.56a72,72,0,0,1,68.57-.73c1.8,1,3.69,1.88,5.59,2.73,2.6,2.34,5.56,4.24,8.15,6.59A71.73,71.73,0,0,1,981,571.42c.67,11.44.17,22.91.32,34.37-2.59,0-5.18,0-7.76,0q-64-.1-128,0c-2.59-.14-5.29.42-7.78-.3.1-9.67,0-19.34.05-29a71.32,71.32,0,0,1,18.32-46.33c3.37-3.87,7.44-7,11-10.7A36,36,0,0,0,874.56,515.56Z" transform="translate(-763.62 -404.52)"/><path class="cls-3" d="M849,626.49c.85-.73,1.73-1.43,2.62-2.11q14.89,17.6,29.69,35.29l-2.5,2.13c-4.24,3.45-8.3,7.1-12.58,10.49-1.71-1.92-3.31-3.93-5-5.87-4.15,2.65-7.31,6.65-11.57,9.09-6.49-7.75-13-15.48-19.51-23.23,3.34-3.58,7.49-6.25,11-9.66-1.53-1.9-3.1-3.75-4.53-5.72C840.76,633.45,844.91,630,849,626.49Z" transform="translate(-763.62 -404.52)"/><path class="cls-4" d="M845.55,605.79q64-.1,128,0a64.31,64.31,0,0,1-32.88,55.86A63.43,63.43,0,0,1,896,668.19c12.13-3.45,23.65-9.62,32.19-19.05a64,64,0,0,0,16.24-33.8c-11.25-.78-22.62-.1-33.91-.33-21.41.06-42.82-.12-64.23.1A76.61,76.61,0,0,1,845.55,605.79Z" transform="translate(-763.62 -404.52)"/><path class="cls-5" d="M846.25,615.11c21.41-.22,42.82,0,64.23-.1,11.29.23,22.66-.45,33.91.33a64,64,0,0,1-16.24,33.8c-8.54,9.43-20.06,15.6-32.19,19.05a59.29,59.29,0,0,1-17.17-6.39l2.5-2.13Q866.46,642,851.6,624.38c-.89.68-1.77,1.38-2.62,2.11A75.4,75.4,0,0,1,846.25,615.11Z" transform="translate(-763.62 -404.52)"/><path class="cls-6" d="M889.73,451.85c20.12-.25,40.25,0,60.37-.11.32,9.48.26,19,0,28.47-6.23,0-12.46-.07-18.68,0a23,23,0,0,0,.77,7.34c3,11.14,9.28,21.12,16.52,30-1.9-.85-3.79-1.72-5.59-2.73a72,72,0,0,0-68.57.73,36,36,0,0,1-7.38,3.9c6.77-7.85,13.5-16,17.52-25.67,4.77-10.47,2.33-22.21,2.92-33.3C888.06,457.7,886.24,453.12,889.73,451.85Z" transform="translate(-763.62 -404.52)"/></svg>