<svg id="Layer_1" data-name="Layer 1" xmlns="http://www.w3.org/2000/svg" viewBox="0 0 320.83 316.89"><defs><style>.cls-1{fill:#c5c6c7;}.cls-2{fill:#fff;}.cls-3{fill:#6cc8df;}.cls-4{fill:#117086;}.cls-5{fill:#ccc;}.cls-6{fill:#f2f2f2;}.cls-7{fill:#b4b4b4;}.cls-8{fill:#0f5869;}.cls-9{fill:#e5e5e5;}</style></defs><title>camera</title><path class="cls-1" d="M824.82,78.81a158.5,158.5,0,0,1,246.47,71.63A159.46,159.46,0,0,1,1073,252.51a53,53,0,0,1-3.08,8.12c-.12-36.19,0-72.37,0-108.56-6.29-.3-12.59-.06-18.88-.11-.07,6.13,0,12.26,0,18.4l-1.2.4a52.22,52.22,0,0,0-12.42,4.3,13.36,13.36,0,0,1-4.52-13.5c2-7.66,8-13.26,11.87-20,4.8-9.58,1.77-23-7.7-28.58a21.75,21.75,0,0,0-18.84-.88c-6,2.67-10.57,7.57-15.64,11.61-1.21-4.29-2.4-8.59-3.8-12.83-5.43,1.37-10.74,3.16-16.13,4.63-1.73-6.35-3.69-12.63-5.48-19-68.56,20-137,40.27-205.58,60.2l-.65-.25A158.69,158.69,0,0,1,824.82,78.81Z" transform="translate(-759.7 -45.48)"/><path class="cls-1" d="M1019.16,119.26A14.4,14.4,0,0,1,1035,120c5.54,5,6.8,14.31,2.33,20.36-4.74,6.8-10.55,13.52-11.69,22-.89,5.94,1.56,11.82,5.29,16.35a52.44,52.44,0,0,0-20.67,27.53c-19-.06-37.93,0-56.89,0-2.15-7.28-4.31-14.56-6.41-21.85q25.74-7.46,51.41-15.08c-1.7-6-3.49-11.91-5.24-17.86l-.3-1c5.24-1.94,10.72-3.11,16-4.95-1.27-5-2.81-9.85-4.28-14.76C1009.66,127.25,1013.81,122.47,1019.16,119.26Z" transform="translate(-759.7 -45.48)"/><path class="cls-1" d="M765.53,180.25c1.05,3.57,2.2,7.11,3.08,10.73,7.91,0,15.83-.76,23.75-1.16q.93,3.35,1.94,6.68,2.79,9.48,5.53,19c5-1.05,9.85-2.9,14.85-4.09,1.17,3.62,1.75,7.54,3.48,10.92,26.19-7.91,52.54-15.3,78.72-23.25,3.41,8.6,5.37,17.75,8.19,26.57a26.13,26.13,0,0,0,12.74,16.7c9.48,5.35,22.64,4,30.2-4.07,20.76-.25,41.52-.08,62.28-.08,5.47,18.27,21.84,32.56,40.58,35.85.15,6.12,0,12.24.05,18.36l2.56.07a158.39,158.39,0,0,1-261.25,2.33C769.06,261.94,759.1,220,765.53,180.25Z" transform="translate(-759.7 -45.48)"/><path class="cls-2" d="M771.48,156.78c68.57-19.93,137-40.25,205.58-60.2,1.79,6.32,3.75,12.6,5.48,19,2.73,9.6,5.63,19.15,8.4,28.74-48.45,14.06-96.79,28.51-145.26,42.48-14.09,1.06-28.24,1.56-42.35,2.41-3.66.25-7.32.36-11,.66-7.92.4-15.84,1.15-23.75,1.16-.88-3.62-2-7.16-3.08-10.73-1.9-6.67-3.91-13.3-5.83-20C763.63,159.13,767.58,158,771.48,156.78Z" transform="translate(-759.7 -45.48)"/><path class="cls-2" d="M1037.3,175.06a52.22,52.22,0,0,1,12.42-4.3,11.18,11.18,0,0,1,1,4.8c-.12,16.66,0,33.32,0,50,.23,16.15-.28,32.31.17,48.46-18.74-3.29-35.11-17.58-40.58-35.85a57.68,57.68,0,0,1,0-31.88,52.44,52.44,0,0,1,20.67-27.53C1033,177.47,1035.13,176.23,1037.3,175.06Z" transform="translate(-759.7 -45.48)"/><path class="cls-3" d="M1018.11,112.12A21.75,21.75,0,0,1,1037,113c9.47,5.55,12.5,19,7.7,28.58-3.83,6.72-9.83,12.32-11.87,20a13.36,13.36,0,0,0,4.52,13.5c-2.17,1.17-4.29,2.41-6.37,3.69-3.73-4.53-6.18-10.41-5.29-16.35,1.14-8.52,6.95-15.24,11.69-22,4.47-6.05,3.21-15.41-2.33-20.36a14.4,14.4,0,0,0-15.84-.74c-5.35,3.21-9.5,8-14.61,11.53-.76-2.33-1.45-4.69-2.08-7.06C1007.54,119.69,1012.09,114.79,1018.11,112.12Z" transform="translate(-759.7 -45.48)"/><path class="cls-4" d="M982.54,115.53c5.39-1.47,10.7-3.26,16.13-4.63,1.4,4.24,2.59,8.54,3.8,12.83.63,2.37,1.32,4.73,2.08,7.06,1.47,4.91,3,9.8,4.28,14.76-5.28,1.84-10.76,3-16,4.95q-1-3.1-1.89-6.23C988.17,134.68,985.27,125.13,982.54,115.53Z" transform="translate(-759.7 -45.48)"/><path class="cls-4" d="M794.3,196.5c5.26-.28,10.53-.52,15.77-1.07,1.49,5.33,3.15,10.6,4.61,15.94-5,1.19-9.82,3-14.85,4.09Q797.09,206,794.3,196.5Z" transform="translate(-759.7 -45.48)"/><path class="cls-4" d="M926.85,214c6.41-3.13,14.28,3.63,12.2,10.43-1.29,6.46-10.25,9.09-14.84,4.38C919.47,224.76,921,216.2,926.85,214Z" transform="translate(-759.7 -45.48)"/><path class="cls-5" d="M896.88,199c16.68-4.92,33.35-9.88,50.08-14.63,2.1,7.29,4.26,14.57,6.41,21.85-8.27.09-16.54-.09-24.8.09s-15.42,7.89-15.1,16.12c-.2,8.47,7.59,15.91,16,15.68,6.19-.09,12.37,0,18.56.09-7.56,8-20.72,9.42-30.2,4.07a26.13,26.13,0,0,1-12.74-16.7C902.25,216.79,900.29,207.64,896.88,199Z" transform="translate(-759.7 -45.48)"/><path class="cls-6" d="M1051,152c6.29,0,12.59-.19,18.88.11,0,36.19-.09,72.37,0,108.56-.13,10.6,0,21.2-.06,31.8h-16.33l-2.56-.07c0-6.12.1-12.24-.05-18.36-.45-16.15.06-32.31-.17-48.46,0-16.67-.07-33.33,0-50a11.18,11.18,0,0,0-1-4.8l1.2-.4C1051,164.22,1050.89,158.09,1051,152Z" transform="translate(-759.7 -45.48)"/><path class="cls-7" d="M845.68,186.75c48.47-14,96.81-28.42,145.26-42.48q.88,3.12,1.89,6.23l.3,1c-46.5,13.75-93.06,27.28-139.57,41-3.59,1.18-7.41,1.12-11.13,1.34-10.59.39-21.16,1.51-31.75,1.57l-.85-.75c-.58-1.83-1.09-3.67-1.58-5.5-1.65,0-3.29-.06-4.92,0C817.44,188.31,831.59,187.81,845.68,186.75Z" transform="translate(-759.7 -45.48)"/><path class="cls-8" d="M792.36,189.82c3.65-.3,7.31-.41,11-.66,1.63-.08,3.27-.07,4.92,0,.49,1.83,1,3.67,1.58,5.5l.24.79c-5.24.55-10.51.79-15.77,1.07Q793.3,193.17,792.36,189.82Z" transform="translate(-759.7 -45.48)"/><path class="cls-9" d="M853.56,192.48c46.51-13.73,93.07-27.26,139.57-41,1.75,5.95,3.54,11.89,5.24,17.86q-25.7,7.59-51.41,15.08c-16.73,4.75-33.4,9.71-50.08,14.63-26.18,8-52.53,15.34-78.72,23.25-1.73-3.38-2.31-7.3-3.48-10.92-1.46-5.34-3.12-10.61-4.61-15.94l-.24-.79.85.75c10.59-.06,21.16-1.18,31.75-1.57C846.15,193.6,850,193.66,853.56,192.48Z" transform="translate(-759.7 -45.48)"/><path class="cls-9" d="M913.47,222.47c-.32-8.23,6.83-16,15.1-16.12s16.53,0,24.8-.09c19,0,37.93,0,56.89,0a57.68,57.68,0,0,0,0,31.88c-20.76,0-41.52-.17-62.28.08-6.19-.12-12.37-.18-18.56-.09C921.06,238.38,913.27,230.94,913.47,222.47ZM926.85,214c-5.85,2.18-7.38,10.74-2.64,14.81,4.59,4.71,13.55,2.08,14.84-4.38C941.13,217.65,933.26,210.89,926.85,214Z" transform="translate(-759.7 -45.48)"/></svg>