<svg width="0" height="0" class="hidden">
  <symbol aria-hidden="true" data-prefix="fas" data-icon="bars" xmlns="http://www.w3.org/2000/svg" viewBox="0 0 448 512" id="bars-solid">
    <path fill="currentColor" d="M16 132h416c8.837 0 16-7.163 16-16V76c0-8.837-7.163-16-16-16H16C7.163 60 0 67.163 0 76v40c0 8.837 7.163 16 16 16zm0 160h416c8.837 0 16-7.163 16-16v-40c0-8.837-7.163-16-16-16H16c-8.837 0-16 7.163-16 16v40c0 8.837 7.163 16 16 16zm0 160h416c8.837 0 16-7.163 16-16v-40c0-8.837-7.163-16-16-16H16c-8.837 0-16 7.163-16 16v40c0 8.837 7.163 16 16 16z"></path>
  </symbol>
  <symbol xmlns="http://www.w3.org/2000/svg" viewBox="0 0 320.83 316.89" id="camera">
    <title>camera</title>
    <path d="M65.12 33.33a158.5 158.5 0 01246.47 71.63 159.46 159.46 0 011.71 102.07 53 53 0 01-3.08 8.12c-.12-36.19 0-72.37 0-108.56-6.29-.3-12.59-.06-18.88-.11-.07 6.13 0 12.26 0 18.4l-1.2.4a52.22 52.22 0 00-12.42 4.3 13.36 13.36 0 01-4.52-13.5c2-7.66 8-13.26 11.87-20 4.8-9.58 1.77-23-7.7-28.58a21.75 21.75 0 00-18.84-.88c-6 2.67-10.57 7.57-15.64 11.61-1.21-4.29-2.4-8.59-3.8-12.83-5.43 1.37-10.74 3.16-16.13 4.63-1.73-6.35-3.69-12.63-5.48-19-68.56 20-137 40.27-205.58 60.2l-.65-.25a158.69 158.69 0 0153.87-77.65z"></path>
    <path d="M259.46 73.78a14.4 14.4 0 0115.84.74c5.54 5 6.8 14.31 2.33 20.36-4.74 6.8-10.55 13.52-11.69 22-.89 5.94 1.56 11.82 5.29 16.35a52.44 52.44 0 00-20.67 27.53c-19-.06-37.93 0-56.89 0-2.15-7.28-4.31-14.56-6.41-21.85q25.74-7.46 51.41-15.08c-1.7-6-3.49-11.91-5.24-17.86l-.3-1c5.24-1.94 10.72-3.11 16-4.95-1.27-5-2.81-9.85-4.28-14.76 5.11-3.49 9.26-8.27 14.61-11.48zM5.83 134.77c1.05 3.57 2.2 7.11 3.08 10.73 7.91 0 15.83-.76 23.75-1.16q.93 3.35 1.94 6.68 2.79 9.48 5.53 19c5-1.05 9.85-2.9 14.85-4.09 1.17 3.62 1.75 7.54 3.48 10.92 26.19-7.91 52.54-15.3 78.72-23.25 3.41 8.6 5.37 17.75 8.19 26.57a26.13 26.13 0 0012.74 16.7c9.48 5.35 22.64 4 30.2-4.07 20.76-.25 41.52-.08 62.28-.08 5.47 18.27 21.84 32.56 40.58 35.85.15 6.12 0 12.24.05 18.36l2.56.07a158.39 158.39 0 01-261.25 2.33C9.36 216.46-.6 174.52 5.83 134.77z"></path>
    <path d="M11.78 111.3c68.57-19.93 137-40.25 205.58-60.2 1.79 6.32 3.75 12.6 5.48 19 2.73 9.6 5.63 19.15 8.4 28.74-48.45 14.06-96.79 28.51-145.26 42.48-14.09 1.06-28.24 1.56-42.35 2.41-3.66.25-7.32.36-11 .66-7.92.4-15.84 1.15-23.75 1.16-.88-3.62-2-7.16-3.08-10.73-1.9-6.67-3.91-13.3-5.83-20 3.96-1.17 7.91-2.3 11.81-3.52zm265.82 18.28a52.22 52.22 0 0112.42-4.3 11.18 11.18 0 011 4.8c-.12 16.66 0 33.32 0 50 .23 16.15-.28 32.31.17 48.46-18.74-3.29-35.11-17.58-40.58-35.85a57.68 57.68 0 010-31.88 52.44 52.44 0 0120.67-27.53c2.02-1.29 4.15-2.53 6.32-3.7z"></path>
    <path d="M258.41 66.64a21.75 21.75 0 0118.89.88c9.47 5.55 12.5 19 7.7 28.58-3.83 6.72-9.83 12.32-11.87 20a13.36 13.36 0 004.52 13.5c-2.17 1.17-4.29 2.41-6.37 3.69-3.73-4.53-6.18-10.41-5.29-16.35 1.14-8.52 6.95-15.24 11.69-22 4.47-6.05 3.21-15.41-2.33-20.36a14.4 14.4 0 00-15.84-.74c-5.35 3.21-9.5 8-14.61 11.53-.76-2.33-1.45-4.69-2.08-7.06 5.02-4.1 9.57-9 15.59-11.67z" fill="#6cc8df"></path>
    <path d="M222.84 70.05c5.39-1.47 10.7-3.26 16.13-4.63 1.4 4.24 2.59 8.54 3.8 12.83.63 2.37 1.32 4.73 2.08 7.06 1.47 4.91 3 9.8 4.28 14.76-5.28 1.84-10.76 3-16 4.95q-1-3.1-1.89-6.23c-2.77-9.59-5.67-19.14-8.4-28.74zM34.6 151.02c5.26-.28 10.53-.52 15.77-1.07 1.49 5.33 3.15 10.6 4.61 15.94-5 1.19-9.82 3-14.85 4.09q-2.74-9.46-5.53-18.96zm132.55 17.5c6.41-3.13 14.28 3.63 12.2 10.43-1.29 6.46-10.25 9.09-14.84 4.38-4.74-4.05-3.21-12.61 2.64-14.81z"></path>
    <path d="M137.18 153.52c16.68-4.92 33.35-9.88 50.08-14.63 2.1 7.29 4.26 14.57 6.41 21.85-8.27.09-16.54-.09-24.8.09s-15.42 7.89-15.1 16.12c-.2 8.47 7.59 15.91 16 15.68 6.19-.09 12.37 0 18.56.09-7.56 8-20.72 9.42-30.2 4.07a26.13 26.13 0 01-12.74-16.7c-2.84-8.78-4.8-17.93-8.21-26.57z" fill="#ccc"></path>
    <path d="M291.3 106.52c6.29 0 12.59-.19 18.88.11 0 36.19-.09 72.37 0 108.56-.13 10.6 0 21.2-.06 31.8h-16.33l-2.56-.07c0-6.12.1-12.24-.05-18.36-.45-16.15.06-32.31-.17-48.46 0-16.67-.07-33.33 0-50a11.18 11.18 0 00-1-4.8l1.2-.4c.09-6.16-.02-12.29.09-18.38z" fill="#f2f2f2"></path>
    <path d="M85.98 141.27c48.47-14 96.81-28.42 145.26-42.48q.88 3.12 1.89 6.23l.3 1c-46.5 13.75-93.06 27.28-139.57 41-3.59 1.18-7.41 1.12-11.13 1.34-10.59.39-21.16 1.51-31.75 1.57l-.85-.75c-.58-1.83-1.09-3.67-1.58-5.5-1.65 0-3.29-.06-4.92 0 14.11-.85 28.26-1.35 42.35-2.41z" fill="#b4b4b4"></path>
    <path d="M32.66 144.34c3.65-.3 7.31-.41 11-.66 1.63-.08 3.27-.07 4.92 0 .49 1.83 1 3.67 1.58 5.5l.24.79c-5.24.55-10.51.79-15.77 1.07q-1.03-3.35-1.97-6.7z" fill="#0f5869"></path>
    <path d="M93.86 147c46.51-13.73 93.07-27.26 139.57-41 1.75 5.95 3.54 11.89 5.24 17.86q-25.7 7.59-51.41 15.08c-16.73 4.75-33.4 9.71-50.08 14.63-26.18 8-52.53 15.34-78.72 23.25-1.73-3.38-2.31-7.3-3.48-10.92-1.46-5.34-3.12-10.61-4.61-15.94l-.24-.79.85.75c10.59-.06 21.16-1.18 31.75-1.57 3.72-.23 7.57-.17 11.13-1.35zm59.91 29.99c-.32-8.23 6.83-16 15.1-16.12s16.53 0 24.8-.09h56.89a57.68 57.68 0 000 31.88c-20.76 0-41.52-.17-62.28.08-6.19-.12-12.37-.18-18.56-.09-8.36.25-16.15-7.19-15.95-15.66zm13.38-8.47c-5.85 2.18-7.38 10.74-2.64 14.81 4.59 4.71 13.55 2.08 14.84-4.38 2.08-6.78-5.79-13.54-12.2-10.43z"></path>
  </symbol>
  <symbol xmlns="http://www.w3.org/2000/svg" viewBox="0 0 316.91 316.94" id="camera2">
    <title>camera2</title>
    <path d="M54.67 95.82c11.46 0 22.93-.06 34.39 0 1.36 19.79 3 39.56 4.21 59.36q-13.59.07-27.19 0c-3.54-19.84-8.12-39.48-11.41-59.36z" fill="#fff"></path>
    <path d="M63.12 165.96c2.61.2 5.24.2 7.86.2 52.11 0 104.21.07 156.31-.05-1.61 17.75-6.92 35.82-18 50a82.67 82.67 0 01-18.64 16.42 118.33 118.33 0 01-28.86 12.1c-5 1.57-10.26 2.2-15.2 4-33.11-3.69-63.13-26.22-76.35-56.74-3.55-8.21-6.45-16.94-7.12-25.93zm21.32 6.59c-2.59.51-5.63 1.71-6.45 4.49-1 4.69.51 9.43 2.12 13.81 2.67 7.59 7.46 14.26 13.06 20 9.62 9.62 21.16 17.64 34.21 21.77 9.85 3.51 20.67 5.09 30.95 2.76 2.31-.35 3.87-3 2.37-5-2.75-3.25-7.07-4.56-10.92-6-10.52-3.28-21.68-6.44-30-14.08-5.92-5.32-8.64-13.44-8.47-21.26.17-4.82-.5-10.45-4.67-13.54-6.59-4.2-14.78-3.25-22.2-2.95zm71.9 2.84a19.42 19.42 0 00-13.21 21.67c1.41 10.41 12.61 18.09 22.89 15.67 10.57-1.82 17.79-13.47 14.83-23.77-2.39-10.49-14.38-17.05-24.51-13.57z" fill="#117086"></path>
    <path d="M249.25 95.85c10.32 0 20.64-.06 31 0-2.76 19.75-6.2 39.43-9.24 59.15a40.3 40.3 0 01-6.86.16c-6.49-.06-13 0-19.46 0 1.33-19.79 3.01-39.54 4.56-59.31z" fill="#b4b4b4"></path>
    <path d="M227.29 166.11l2.44-.08c8.09.21 16.19.12 24.29.1a96.36 96.36 0 01-107.48 82.55c4.94-1.82 10.19-2.45 15.2-4a118.33 118.33 0 0028.86-12.1 82.67 82.67 0 0018.64-16.42c11.13-14.23 16.44-32.3 18.05-50.05z" fill="#0f5869"></path>
    <path d="M36.68 95.84h18c3.29 19.88 7.89 39.52 11.41 59.36-3.82-.05-7.64 0-11.46 0-2.24 0-4.48 0-6.73.08-.87-1.19-.75-2.79-1.1-4.15-3.32-18.46-7.02-36.83-10.12-55.29zm52.38-.01h160.19c-1.55 19.77-3.23 39.52-4.6 59.3H93.27c-1.22-19.74-2.85-39.51-4.21-59.3z"></path>
    <path d="M143.48.71a158.64 158.64 0 11-97.52 46.17A158.54 158.54 0 01143.48.71zM36.68 95.84c3.1 18.46 6.8 36.83 10.11 55.26.35 1.36.23 3 1.1 4.15 2.25 0 4.49 0 6.73-.08-.56 5 3.67 9.78 8.5 10.79.67 9 3.57 17.72 7.08 26 13.22 30.52 43.24 53 76.35 56.74a96.36 96.36 0 00107.47-82.55 11 11 0 0010.09-10.95 40.3 40.3 0 006.86-.16c3-19.72 6.48-39.4 9.24-59.15-10.32-.08-20.64-.06-31 0q-80.1-.06-160.19 0c-11.46-.07-22.93-.05-34.39 0-5.95-.03-11.95-.07-17.95-.05z" fill="#c5c6c7"></path>
    <path d="M54.62 155.17h11.46q13.59.09 27.19 0c48.29-.08 96.58 0 144.87 0-.82 2.38-1.36 5-2.92 7a28.91 28.91 0 01-5.49 3.87l-2.44.08c-52.1.12-104.2 0-156.31.05-2.62 0-5.25 0-7.86-.2-4.83-1.02-9.06-5.77-8.5-10.8z" fill="#0b4553"></path>
    <path d="M238.14 155.15h25.97a11 11 0 01-10.09 10.95c-8.1 0-16.2.11-24.29-.1a28.91 28.91 0 005.49-3.87c1.56-2.02 2.1-4.6 2.92-6.98z" fill="#093540"></path>
    <path d="M84.44 172.55c7.42-.3 15.61-1.25 22.23 2.89 4.17 3.09 4.84 8.72 4.67 13.54-.17 7.82 2.55 15.94 8.47 21.26 8.29 7.64 19.45 10.8 30 14.08 3.85 1.45 8.17 2.76 10.92 6 1.5 2-.06 4.67-2.37 5-10.28 2.33-21.1.75-30.95-2.76-13.08-4.09-24.62-12.09-34.24-21.74-5.6-5.71-10.39-12.38-13.06-20-1.61-4.38-3.15-9.12-2.12-13.81.82-2.75 3.86-3.95 6.45-4.46z" fill="#3e8b9d"></path>
    <path d="M156.34 175.39c10.13-3.48 22.12 3.12 24.51 13.57 3 10.3-4.26 22-14.83 23.77-10.28 2.42-21.48-5.26-22.89-15.67a19.42 19.42 0 0113.21-21.67zm-2.05 6c-6.38 2.2-7.72 11.7-2.24 15.62 5.15 4.42 14.14.7 14.61-6.09 1.11-6.56-6.33-12.23-12.37-9.53z" fill="#1792b1"></path>
    <path d="M154.29 181.39c6-2.7 13.48 3 12.37 9.53-.47 6.79-9.46 10.51-14.61 6.09-5.51-3.92-4.14-13.42 2.24-15.62z" fill="#81c0d1"></path>
  </symbol>
  <symbol xmlns="http://www.w3.org/2000/svg" viewBox="0 0 316.93 316.93" id="camera3">
    <title>camera3</title>
    <path d="M56.38 37.32a158.51 158.51 0 01192.36-9.13c6.54 4.73 13.18 9.54 18.66 15.48-27 .14-53.94 0-80.91.08v3.47c-20.12.08-40.25-.14-60.37.11-3.49 1.27-1.67 5.85-2.11 8.64-.59 11.09 1.85 22.83-2.92 33.3-4 9.67-10.75 17.82-17.52 25.67-3.6 3.65-7.67 6.83-11 10.7a71.32 71.32 0 00-18.32 46.33c-.05 9.66 0 19.33-.05 29 2.49.72 5.19.16 7.78.3a76.61 76.61 0 00.7 9.32 75.4 75.4 0 002.7 11.38c-4.07 3.53-8.22 7-12.36 10.41 1.43 2 3 3.82 4.53 5.72-3.51 3.41-7.66 6.08-11 9.66 6.49 7.75 13 15.48 19.51 23.23 4.26-2.44 7.42-6.44 11.57-9.09 1.67 1.94 3.27 4 5 5.87 4.28-3.39 8.34-7 12.58-10.49a59.29 59.29 0 0017.17 6.39 63.43 63.43 0 0044.71-6.54 64.31 64.31 0 0032.88-55.86h7.76c-.15-11.46.35-22.93-.32-34.37a71.73 71.73 0 00-24.12-47.27c-2.59-2.35-5.55-4.25-8.15-6.59-7.24-8.88-13.47-18.86-16.52-30a23 23 0 01-.77-7.34c6.22-.08 12.45 0 18.68 0 0 .88-.05 2.65-.07 3.53 16-.18 31 8 41.78 19.49 14.35 14.45 22.79 33.28 34.65 49.56q12 .06 24.07 0c.06-27.47 0-54.95 0-82.42 25.68 34.87 35.42 80.67 27 123.07A158.49 158.49 0 1156.38 37.32z" fill="#00d9ff"></path>
    <path d="M186.44 43.75c27-.09 53.94.06 80.91-.08 6.52.12 13 0 19.59.06v22.12c-.06 27.47 0 55 0 82.42q-12 .06-24.07 0c-11.86-16.28-20.3-35.11-34.65-49.56-10.77-11.46-25.74-19.67-41.78-19.49 0-.88.06-2.65.07-3.53.25-9.49.31-19 0-28.47zm-75.5 67.29a72 72 0 0168.57-.73c1.8 1 3.69 1.88 5.59 2.73 2.6 2.34 5.56 4.24 8.15 6.59a71.73 71.73 0 0124.13 47.27c.67 11.44.17 22.91.32 34.37h-7.76q-64-.1-128 0c-2.59-.14-5.29.42-7.78-.3.1-9.67 0-19.34.05-29a71.32 71.32 0 0118.32-46.33c3.37-3.87 7.44-7 11-10.7a36 36 0 007.41-3.9z"></path>
    <path d="M85.38 221.97c.85-.73 1.73-1.43 2.62-2.11q14.89 17.6 29.69 35.29l-2.5 2.13c-4.24 3.45-8.3 7.1-12.58 10.49-1.71-1.92-3.31-3.93-5-5.87-4.15 2.65-7.31 6.65-11.57 9.09-6.49-7.75-13-15.48-19.51-23.23 3.34-3.58 7.49-6.25 11-9.66-1.53-1.9-3.1-3.75-4.53-5.72 4.14-3.45 8.29-6.9 12.38-10.41z" fill="#117086"></path>
    <path d="M81.93 201.27q64-.1 128 0a64.31 64.31 0 01-32.88 55.86 63.43 63.43 0 01-44.67 6.54c12.13-3.45 23.65-9.62 32.19-19.05a64 64 0 0016.24-33.8c-11.25-.78-22.62-.1-33.91-.33-21.41.06-42.82-.12-64.23.1a76.61 76.61 0 01-.74-9.32z" fill="#bebebe"></path>
    <path d="M82.63 210.59c21.41-.22 42.82 0 64.23-.1 11.29.23 22.66-.45 33.91.33a64 64 0 01-16.24 33.8c-8.54 9.43-20.06 15.6-32.19 19.05a59.29 59.29 0 01-17.17-6.39l2.5-2.13q-14.83-17.67-29.69-35.29c-.89.68-1.77 1.38-2.62 2.11a75.4 75.4 0 01-2.73-11.38z" fill="#f2f2f2"></path>
    <path d="M126.11 47.33c20.12-.25 40.25 0 60.37-.11.32 9.48.26 19 0 28.47-6.23 0-12.46-.07-18.68 0a23 23 0 00.77 7.34c3 11.14 9.28 21.12 16.52 30-1.9-.85-3.79-1.72-5.59-2.73a72 72 0 00-68.57.73 36 36 0 01-7.38 3.9c6.77-7.85 13.5-16 17.52-25.67 4.77-10.47 2.33-22.21 2.92-33.3.45-2.78-1.37-7.36 2.12-8.63z" fill="#e5e5e5"></path>
  </symbol>
  <symbol aria-hidden="true" data-prefix="fas" data-icon="check" xmlns="http://www.w3.org/2000/svg" viewBox="0 0 512 512" id="check-solid">
    <path fill="currentColor" d="M173.898 439.404l-166.4-166.4c-9.997-9.997-9.997-26.206 0-36.204l36.203-36.204c9.997-9.998 26.207-9.998 36.204 0L192 312.69 432.095 72.596c9.997-9.997 26.207-9.997 36.204 0l36.203 36.204c9.997 9.997 9.997 26.206 0 36.204l-294.4 294.401c-9.998 9.997-26.207 9.997-36.204-.001z"></path>
  </symbol>
  <symbol aria-hidden="true" data-prefix="fas" data-icon="chevron-right" xmlns="http://www.w3.org/2000/svg" viewBox="0 0 320 512" id="chevron-right-solid">
    <path fill="currentColor" d="M285.476 272.971L91.132 467.314c-9.373 9.373-24.569 9.373-33.941 0l-22.667-22.667c-9.357-9.357-9.375-24.522-.04-33.901L188.505 256 34.484 101.255c-9.335-9.379-9.317-24.544.04-33.901l22.667-22.667c9.373-9.373 24.569-9.373 33.941 0L285.475 239.03c9.373 9.372 9.373 24.568.001 33.941z"></path>
  </symbol>
  <symbol aria-hidden="true" data-prefix="far" data-icon="edit" xmlns="http://www.w3.org/2000/svg" viewBox="0 0 576 512" id="edit">
    <path fill="currentColor" d="M402.3 344.9l32-32c5-5 13.7-1.5 13.7 5.7V464c0 26.5-21.5 48-48 48H48c-26.5 0-48-21.5-48-48V112c0-26.5 21.5-48 48-48h273.5c7.1 0 10.7 8.6 5.7 13.7l-32 32c-1.5 1.5-3.5 2.3-5.7 2.3H48v352h352V350.5c0-2.1.8-4.1 2.3-5.6zm156.6-201.8L296.3 405.7l-90.4 10c-26.2 2.9-48.5-19.2-45.6-45.6l10-90.4L432.9 17.1c22.9-22.9 59.9-22.9 82.7 0l43.2 43.2c22.9 22.9 22.9 60 .1 82.8zM460.1 174L402 115.9 216.2 301.8l-7.3 65.3 65.3-7.3L460.1 174zm64.8-79.7l-43.2-43.2c-4.1-4.1-10.8-4.1-14.8 0L436 82l58.1 58.1 30.9-30.9c4-4.2 4-10.8-.1-14.9z"></path>
  </symbol>
  <symbol aria-hidden="true" data-prefix="fas" data-icon="hand-holding-heart" xmlns="http://www.w3.org/2000/svg" viewBox="0 0 576 512" id="hand-heart">
    <path fill="currentColor" d="M275.3 250.5c7 7.4 18.4 7.4 25.5 0l108.9-114.2c31.6-33.2 29.8-88.2-5.6-118.8-30.8-26.7-76.7-21.9-104.9 7.7L288 36.9l-11.1-11.6C248.7-4.4 202.8-9.2 172 17.5c-35.3 30.6-37.2 85.6-5.6 118.8l108.9 114.2zm290 77.6c-11.8-10.7-30.2-10-42.6 0L430.3 402c-11.3 9.1-25.4 14-40 14H272c-8.8 0-16-7.2-16-16s7.2-16 16-16h78.3c15.9 0 30.7-10.9 33.3-26.6 3.3-20-12.1-37.4-31.6-37.4H192c-27 0-53.1 9.3-74.1 26.3L71.4 384H16c-8.8 0-16 7.2-16 16v96c0 8.8 7.2 16 16 16h356.8c14.5 0 28.6-4.9 40-14L564 377c15.2-12.1 16.4-35.3 1.3-48.9z"></path>
  </symbol>
  <symbol aria-hidden="true" data-prefix="far" data-icon="lightbulb" xmlns="http://www.w3.org/2000/svg" viewBox="0 0 352 512" id="lightbulb">
    <path fill="currentColor" d="M176 80c-52.94 0-96 43.06-96 96 0 8.84 7.16 16 16 16s16-7.16 16-16c0-35.3 28.72-64 64-64 8.84 0 16-7.16 16-16s-7.16-16-16-16zM96.06 459.17c0 3.15.93 6.22 2.68 8.84l24.51 36.84c2.97 4.46 7.97 7.14 13.32 7.14h78.85c5.36 0 10.36-2.68 13.32-7.14l24.51-36.84c1.74-2.62 2.67-5.7 2.68-8.84l.05-43.18H96.02l.04 43.18zM176 0C73.72 0 0 82.97 0 176c0 44.37 16.45 84.85 43.56 115.78 16.64 18.99 42.74 58.8 52.42 92.16v.06h48v-.12c-.01-4.77-.72-9.51-2.15-14.07-5.59-17.81-22.82-64.77-62.17-109.67-20.54-23.43-31.52-53.15-31.61-84.14-.2-73.64 59.67-128 127.95-128 70.58 0 128 57.42 128 128 0 30.97-11.24 60.85-31.65 84.14-39.11 44.61-56.42 91.47-62.1 109.46a47.507 47.507 0 00-2.22 14.3v.1h48v-.05c9.68-33.37 35.78-73.18 52.42-92.16C335.55 260.85 352 220.37 352 176 352 78.8 273.2 0 176 0z"></path>
  </symbol>
  <symbol aria-hidden="true" data-prefix="fas" data-icon="tools" xmlns="http://www.w3.org/2000/svg" viewBox="0 0 512 512" id="tools-solid">
    <path fill="currentColor" d="M501.1 395.7L384 278.6c-23.1-23.1-57.6-27.6-85.4-13.9L192 158.1V96L64 0 0 64l96 128h62.1l106.6 106.6c-13.6 27.8-9.2 62.3 13.9 85.4l117.1 117.1c14.6 14.6 38.2 14.6 52.7 0l52.7-52.7c14.5-14.6 14.5-38.2 0-52.7zM331.7 225c28.3 0 54.9 11 74.9 31l19.4 19.4c15.8-6.9 30.8-16.5 43.8-29.5 37.1-37.1 49.7-89.3 37.9-136.7-2.2-9-13.5-12.1-20.1-5.5l-74.4 74.4-67.9-11.3L334 98.9l74.4-74.4c6.6-6.6 3.4-17.9-5.7-20.2-47.4-11.7-99.6.9-136.6 37.9-28.5 28.5-41.9 66.1-41.2 103.6l82.1 82.1c8.1-1.9 16.5-2.9 24.7-2.9zm-103.9 82l-56.7-56.7L18.7 402.8c-25 25-25 65.5 0 90.5s65.5 25 90.5 0l123.6-123.6c-7.6-19.9-9.9-41.6-5-62.7zM64 472c-13.2 0-24-10.8-24-24 0-13.3 10.7-24 24-24s24 10.7 24 24c0 13.2-10.7 24-24 24z"></path>
  </symbol>
</svg>